<svg width="550" height="817" viewBox="0 0 550 817" fill="none" xmlns="http://www.w3.org/2000/svg">
<g clip-path="url(#clip0_3_35)">
<path d="M450.659 0V158.584H409.054V37.8068C409.042 27.7834 405.055 18.1738 397.968 11.0861C390.88 3.99847 381.27 0.0115544 371.247 0L295.557 0V14.7233H371.247C377.366 14.7319 383.233 17.1667 387.56 21.4939C391.887 25.821 394.322 31.6874 394.331 37.8068V173.307L232.604 335.066L243.027 345.479L394.331 194.142V384.824C394.328 387.345 393.325 389.761 391.543 391.543C389.761 393.325 387.345 394.328 384.824 394.331H205.438V409.054H281.663V796.017H296.386V409.054H384.792C391.215 409.045 397.373 406.49 401.915 401.948C406.457 397.406 409.012 391.248 409.021 384.824V173.307H450.626V401.643H465.382V14.7233H506.987V401.643H521.699V14.7233H549.978V0H450.659ZM405.376 384.824C405.367 390.272 403.199 395.495 399.347 399.347C395.495 403.199 390.272 405.367 384.824 405.376H209.105V398.009H384.824C388.32 398.006 391.672 396.616 394.144 394.144C396.616 391.672 398.006 388.32 398.009 384.824V185.247L391.722 191.534L243.027 340.24L237.81 335.066L405.376 167.468V384.824Z" fill="#CDC8AE"/>
<path d="M225.641 506.987H127.413V345.358H127.347V344.114H82.5988V358.838H112.722V450.157H13.5882C9.92343 450.223 6.43449 451.74 3.88702 454.375C1.33955 457.011 -0.0583564 460.549 5.22347e-05 464.214V563.479C-0.0583796 567.145 1.33918 570.685 3.88635 573.322C6.43352 575.959 9.92245 577.479 13.5882 577.547H112.668V683.35H127.391V521.699H225.335V788.65H127.391V739.678H112.668V788.956C112.67 792.779 114.19 796.444 116.894 799.147C119.597 801.851 123.262 803.371 127.085 803.374H225.641C227.538 803.379 229.418 803.011 231.173 802.289C232.928 801.567 234.523 800.506 235.867 799.167C237.212 797.828 238.279 796.236 239.007 794.484C239.736 792.732 240.111 790.853 240.113 788.956V521.416C240.111 519.518 239.736 517.638 239.007 515.886C238.279 514.133 237.212 512.541 235.868 511.201C234.524 509.861 232.929 508.799 231.174 508.076C229.419 507.353 227.539 506.983 225.641 506.987ZM112.34 573.924H13.5882C10.8825 573.858 8.31341 572.721 6.44512 570.763C4.57684 568.805 3.56205 566.185 3.62357 563.479V464.214C3.56205 461.508 4.57684 458.889 6.44512 456.93C8.31341 454.972 10.8825 453.835 13.5882 453.769H112.34V461.257H10.6087V566.448H112.34V573.924ZM14.1885 562.813V464.88H112.624V562.813H14.1885ZM236.336 788.956C236.334 791.803 235.201 794.533 233.188 796.547C231.174 798.56 228.444 799.693 225.597 799.695H127.042C124.194 799.693 121.464 798.56 119.451 796.547C117.437 794.533 116.305 791.803 116.302 788.956V743.367H123.669V792.372H228.969V518.032H123.713V679.672H116.346V510.676H225.641C228.488 510.679 231.218 511.811 233.231 513.825C235.245 515.838 236.377 518.568 236.38 521.416L236.336 788.956Z" fill="#CDC8AE"/>
<path d="M524.843 539.391C524.843 509.115 507.937 480.204 481.644 463.614C481.764 463.701 481.906 463.767 482.026 463.843H514.354V449.109H342.248V463.854H381.004C382.74 462.697 384.53 461.617 386.352 460.58C382.214 462.889 378.288 465.558 374.619 468.558C361.762 479.16 352.029 493.059 346.461 508.766L360.344 513.677C365.021 500.489 373.196 488.82 383.995 479.92C396.786 469.366 413.769 463.854 431.111 463.854C442.053 463.836 452.885 466.042 462.948 470.337C490.725 482.266 510.119 510.665 510.119 539.391C510.13 555.701 504.967 571.593 495.373 584.782C485.779 597.971 472.248 607.777 456.728 612.788C441.208 617.8 424.498 617.759 409.002 612.672C393.506 607.585 380.024 597.714 370.494 584.478C369.861 583.583 369.403 582.928 369.151 582.568C366.062 577.984 363.468 573.086 361.413 567.954L347.738 573.411C350.983 581.521 355.359 589.131 360.737 596.014C360.376 595.545 359.973 595.108 359.645 594.628C377.108 619.578 472.531 756.442 510.916 816.318L523.315 808.372C494.676 763.744 434.582 676.681 398.369 624.533C397.638 624.238 396.939 623.889 396.186 623.573C410.165 629.679 425.446 632.208 440.647 630.931C455.849 629.654 470.493 624.61 483.257 616.256C496.021 607.902 506.504 596.501 513.759 583.081C521.013 569.662 524.811 554.646 524.81 539.391H524.843ZM476.678 460.722C476.231 460.471 475.794 460.209 475.347 459.969C475.794 460.209 476.231 460.471 476.678 460.722ZM463.701 454.817L462.086 454.271L463.701 454.817ZM458.517 453.125C457.895 452.94 457.273 452.776 456.64 452.602C457.306 452.776 457.895 452.94 458.517 453.125ZM453.158 451.718L451.336 451.303L453.158 451.718ZM447.483 450.561C447.013 450.484 446.555 450.386 446.086 450.321C446.501 450.386 446.959 450.484 447.483 450.561ZM440.683 449.633H440.41H440.683ZM435.313 449.273H433.818H435.313ZM430.347 449.207C428.328 449.207 426.309 449.305 424.301 449.458C426.255 449.305 428.274 449.229 430.293 449.207H430.347ZM392.541 457.491C391.209 458.102 389.899 458.757 388.601 459.423C389.845 458.746 391.155 458.102 392.486 457.491H392.541ZM423.384 449.502C421.136 449.687 418.92 449.971 416.705 450.31C418.866 449.971 421.081 449.666 423.33 449.502H423.384ZM414.336 450.757C412.797 451.03 411.269 451.346 409.741 451.696C411.269 451.292 412.797 450.986 414.336 450.757ZM407.395 452.241C405.398 452.765 403.4 453.333 401.447 453.988C403.4 453.289 405.398 452.722 407.395 452.198V452.241ZM399.842 454.555C398.14 455.156 396.47 455.799 394.811 456.498C396.47 455.756 398.14 455.123 399.842 454.512V454.555ZM370.374 584.434C369.97 583.878 369.577 583.343 369.184 582.754C369.632 583.277 369.992 583.834 370.428 584.391L370.374 584.434ZM359.383 572.756C366.991 589.585 380.137 603.299 396.63 611.611C413.123 619.922 431.967 622.331 450.02 618.433C468.073 614.536 484.245 604.57 495.841 590.194C507.436 575.819 513.755 557.904 513.743 539.435C513.743 509.279 493.432 479.494 464.345 466.997C453.818 462.521 442.496 460.212 431.057 460.209C412.372 460.209 394.811 466.223 381.594 477.126C371.248 485.659 363.184 496.629 358.128 509.05L351.176 506.594C356.68 492.912 365.529 480.828 376.911 471.45C391.395 459.445 410.669 452.896 431.166 452.896V449.262V452.896C443.561 452.89 455.829 455.384 467.238 460.231C499.456 474.07 521.099 505.896 521.099 539.435C521.1 559.611 514.177 579.177 501.489 594.864C488.8 610.55 471.113 621.408 451.382 625.624C431.651 629.84 411.071 627.158 393.079 618.026C375.088 608.895 360.774 593.867 352.529 575.452L359.383 572.756ZM362.516 598.361C363.291 599.289 364.087 600.194 364.884 601.079C364.142 600.151 363.345 599.245 362.57 598.317L362.516 598.361ZM366.881 603.25C367.7 604.102 368.551 604.92 369.402 605.739C368.606 604.877 367.809 604.058 366.936 603.207L366.881 603.25ZM391.122 621.237C391.657 621.51 392.213 621.816 392.715 622.077C392.224 621.772 391.711 621.466 391.176 621.193L391.122 621.237ZM371.629 607.758C372.48 608.522 373.364 609.253 374.248 609.941C373.364 609.253 372.48 608.522 371.629 607.758ZM376.606 611.938C377.479 612.626 378.374 613.259 379.28 613.903C378.374 613.259 377.479 612.626 376.606 611.938ZM381.856 615.758C382.685 616.315 383.547 616.85 384.399 617.341C383.547 616.817 382.685 616.315 381.856 615.758Z" fill="#CDC8AE"/>
<path d="M157.645 344.114H111.74V358.838H154.131H157.71L157.645 344.114Z" fill="#CDC8AE"/>
</g>
<defs>
<clipPath id="clip0_3_35">
<rect width="550" height="816.329" fill="white"/>
</clipPath>
</defs>
</svg>
