<svg width="110" height="133" viewBox="0 0 110 133" fill="none" xmlns="http://www.w3.org/2000/svg">
<path d="M31.9847 56.028H11.253C10.9237 56.0376 10.6105 56.1734 10.3776 56.4075C10.1446 56.6417 10.0096 56.9565 10 57.2875V76.7902C10 77.1343 10.136 77.4644 10.3781 77.7078C10.6202 77.9511 10.9486 78.0878 11.291 78.0878H31.9847" stroke="#231F20" stroke-width="5" stroke-miterlimit="10"/>
<path d="M31.9847 111.33V120.986C31.9847 121.361 32.1328 121.72 32.3962 121.985C32.6597 122.25 33.017 122.398 33.3896 122.398H52.6405C53.0065 122.388 53.3542 122.235 53.6095 121.971C53.8648 121.708 54.0076 121.354 54.0074 120.986V68.47C54.0074 68.1056 53.8634 67.7562 53.6071 67.4985C53.3507 67.2408 53.003 67.0961 52.6405 67.0961H31.9847V100.262" stroke="#231F20" stroke-width="5" stroke-miterlimit="10"/>
<path d="M68.2082 87.4003C69.5727 90.8082 72.0232 93.6649 75.1758 95.5232C78.3284 97.3814 82.0052 98.1361 85.6302 97.6692C89.2553 97.2023 92.6239 95.5401 95.2085 92.9429C97.7931 90.3457 99.4478 86.9602 99.9133 83.3166C100.273 79.7843 99.507 76.2285 97.7258 73.1622C95.9446 70.0959 93.2403 67.6777 90.0031 66.2564C87.9588 65.2685 85.728 64.7314 83.4602 64.6811C81.1924 64.6309 78.9402 65.0686 76.8546 65.965C74.7689 66.8614 72.8981 68.1957 71.3675 69.8784C69.837 71.5612 68.6821 73.5534 67.9804 75.7216" stroke="#231F20" stroke-width="5" stroke-miterlimit="10"/>
<path d="M48.4258 54.2342H89.1298C90.0059 54.2342 90.8461 53.8844 91.4657 53.2617C92.0852 52.639 92.4332 51.7944 92.4332 50.9138V10L60.6142 42.0211" stroke="#231F20" stroke-width="5" stroke-miterlimit="10"/>
</svg>
