<svg width="110" height="133" viewBox="0 0 110 133" fill="none" xmlns="http://www.w3.org/2000/svg">
<path d="M31.9847 56.028H11.253C10.9237 56.0376 10.6105 56.1734 10.3776 56.4075C10.1446 56.6417 10.0096 56.9565 10 57.2875V76.7902C10 77.1343 10.136 77.4644 10.3781 77.7078C10.6202 77.9511 10.9486 78.0878 11.291 78.0878H31.9847" stroke="#ABA692" stroke-width="5" stroke-miterlimit="10"/>
<path d="M31.9846 111.33V120.986C31.9846 121.361 32.1326 121.72 32.3961 121.985C32.6596 122.25 33.0169 122.398 33.3895 122.398H52.6404C53.0064 122.388 53.354 122.235 53.6093 121.971C53.8647 121.708 54.0074 121.354 54.0073 120.986V68.47C54.0073 68.1056 53.8633 67.7562 53.6069 67.4985C53.3506 67.2408 53.0029 67.0961 52.6404 67.0961H31.9846V100.262" stroke="#ABA692" stroke-width="5" stroke-miterlimit="10"/>
<path d="M68.2083 87.4003C69.5728 90.8082 72.0233 93.6649 75.1759 95.5231C78.3285 97.3814 82.0052 98.1361 85.6303 97.6692C89.2553 97.2023 92.624 95.5401 95.2086 92.9429C97.7932 90.3457 99.4478 86.9601 99.9134 83.3165C100.273 79.7843 99.5071 76.2285 97.7258 73.1622C95.9446 70.0959 93.2404 67.6777 90.0032 66.2564C87.9589 65.2685 85.728 64.7314 83.4603 64.6811C81.1925 64.6309 78.9403 65.0686 76.8546 65.965C74.769 66.8614 72.8982 68.1957 71.3676 69.8784C69.8371 71.5611 68.6822 73.5534 67.9805 75.7216" stroke="#ABA692" stroke-width="5" stroke-miterlimit="10"/>
<path d="M48.4258 54.2342H89.1298C90.0059 54.2342 90.8461 53.8844 91.4657 53.2617C92.0852 52.639 92.4332 51.7944 92.4332 50.9138V10L60.6142 42.0211" stroke="#ABA692" stroke-width="5" stroke-miterlimit="10"/>
</svg>
